<svg xmlns="http://www.w3.org/2000/svg" viewBox="0 0 800 500">
  <defs>
    <linearGradient id="bg" x1="0%" y1="0%" x2="100%" y2="100%">
      <stop offset="0%" style="stop-color:#D6EFF5"/>
      <stop offset="100%" style="stop-color:#B8E4D4"/>
    </linearGradient>
  </defs>
  <rect width="800" height="500" fill="url(#bg)"/>
  <g transform="translate(150, 80)">
    <rect x="0" y="0" width="200" height="280" rx="8" fill="#FFFFFF" opacity="0.9" stroke="#6BBDD4" stroke-width="1.5"/>
    <rect x="20" y="20" width="80" height="8" rx="4" fill="#3A9AB5"/>
    <rect x="20" y="50" width="160" height="200" fill="#EAF6FA"/>
    <g transform="translate(40, 80)">
      <rect x="0" y="0" width="120" height="30" rx="6" fill="#6BBDD4" opacity="0.3"/>
      <text x="60" y="21" font-family="system-ui, sans-serif" font-size="12" fill="#3A9AB5" text-anchor="middle" font-weight="600">Ebook 1</text>
    </g>
    <g transform="translate(40, 130)">
      <rect x="0" y="0" width="120" height="30" rx="6" fill="#6BBDD4" opacity="0.3"/>
      <text x="60" y="21" font-family="system-ui, sans-serif" font-size="12" fill="#3A9AB5" text-anchor="middle" font-weight="600">Ebook 2</text>
    </g>
    <g transform="translate(40, 180)">
      <rect x="0" y="0" width="120" height="30" rx="6" fill="#6BBDD4" opacity="0.3"/>
      <text x="60" y="21" font-family="system-ui, sans-serif" font-size="12" fill="#3A9AB5" text-anchor="middle" font-weight="600">Guía PDF</text>
    </g>
  </g>
  <circle cx="550" cy="180" r="80" fill="#6BBDD4" opacity="0.15"/>
  <path d="M500 180 Q550 130 600 180" stroke="#3A9AB5" stroke-width="4" fill="none" stroke-linecap="round"/>
  <path d="M500 180 Q550 210 600 180" stroke="#3A9AB5" stroke-width="3" fill="none" stroke-linecap="round" opacity="0.5"/>
  <circle cx="550" cy="180" r="15" fill="#E8F542"/>
  <text x="400" y="400" font-family="system-ui, sans-serif" font-size="22" fill="#3A9AB5AB5" text-anchor="middle" font-weight="600">Ebooks & Recursos</text>
  <text x="400" y="430" font-family="system-ui, sans-serif" font-size="14" fill="#5A7A85" text-anchor="middle">servicio-ebooks.jpg • 800x500px</text>
  <circle cx="700" cy="80" r="10" fill="#E8F542" opacity="0.6"/>
  <circle cx="680" cy="120" r="6" fill="#E8F542" opacity="0.5"/>
  <circle cx="720" cy="160" r="8" fill="#E8F542" opacity="0.4"/>
</svg>