<svg xmlns="http://www.w3.org/2000/svg" viewBox="0 0 800 500">
  <defs>
    <linearGradient id="bg" x1="0%" y1="0%" x2="100%" y2="100%">
      <stop offset="0%" style="stop-color:#D6EFF5"/>
      <stop offset="100%" style="stop-color:#B8E4D4"/>
    </linearGradient>
  </defs>
  <rect width="800" height="500" fill="url(#bg)"/>
  <rect x="100" y="100" width="200" height="120" rx="12" fill="#FFFFFF" opacity="0.9" stroke="#6BBDD4" stroke-width="2"/>
  <rect x="120" y="120" width="80" height="8" rx="4" fill="#3A9AB5"/>
  <rect x="120" y="145" width="120" height="6" rx="3" fill="#5A7A85" opacity="0.5"/>
  <rect x="120" y="165" width="100" height="6" rx="3" fill="#5A7A85" opacity="0.5"/>
  <rect x="100" y="250" width="200" height="80" rx="12" fill="#EAF6FA" stroke="#6BBDD4" stroke-width="1"/>
  <circle cx="400" cy="150" r="80" fill="#6BBDD4" opacity="0.15"/>
  <circle cx="400" cy="150" r="50" fill="#6BBDD4" opacity="0.25"/>
  <path d="M370 150 Q400 120 430 150" stroke="#3A9AB5" stroke-width="3" fill="none" stroke-linecap="round"/>
  <path d="M370 150 Q400 170 430 150" stroke="#3A9AB5" stroke-width="2" fill="none" stroke-linecap="round" opacity="0.5"/>
  <text x="400" y="400" font-family="system-ui, sans-serif" font-size="22" fill="#3A9AB5" text-anchor="middle" font-weight="600">Terapia Presencial</text>
  <text x="400" y="430" font-family="system-ui, sans-serif" font-size="14" fill="#5A7A85" text-anchor="middle">servicio-presencial.jpg • 800x500px</text>
  <circle cx="680" cy="80" r="10" fill="#E8F542" opacity="0.6"/>
  <circle cx="720" cy="120" r="6" fill="#E8F542" opacity="0.5"/>
  <circle cx="650" cy="160" r="8" fill="#E8F542" opacity="0.4"/>
</svg>